<?xml version="1.0" encoding="UTF-8" standalone="no"?>
<!-- Created with Inkscape (http://www.inkscape.org/) -->

<svg
   width="27.3894mm"
   height="27.55991mm"
   viewBox="0 0 27.3894 27.55991"
   version="1.1"
   id="svg289474"
   inkscape:version="1.1.2 (0a00cf5339, 2022-02-04)"
   sodipodi:docname="hole.model.svg"
   xmlns:inkscape="http://www.inkscape.org/namespaces/inkscape"
   xmlns:sodipodi="http://sodipodi.sourceforge.net/DTD/sodipodi-0.dtd"
   xmlns="http://www.w3.org/2000/svg"
   xmlns:svg="http://www.w3.org/2000/svg">
  <sodipodi:namedview
     id="namedview289476"
     pagecolor="#ffffff"
     bordercolor="#000000"
     borderopacity="0.25"
     inkscape:pageshadow="2"
     inkscape:pageopacity="0.0"
     inkscape:pagecheckerboard="0"
     inkscape:document-units="mm"
     showgrid="false"
     inkscape:zoom="4.2532751"
     inkscape:cx="21.63039"
     inkscape:cy="49.60883"
     inkscape:window-width="1680"
     inkscape:window-height="1013"
     inkscape:window-x="1920"
     inkscape:window-y="662"
     inkscape:window-maximized="1"
     inkscape:current-layer="layer1" />
  <defs
     id="defs289471" />
  <g
     inkscape:label="Layer 1"
     inkscape:groupmode="layer"
     id="layer1"
     transform="translate(-124.95222,-195.59801)">
    <path
       style="display:inline;fill:#c56057;fill-opacity:0.00104023;stroke:none;stroke-width:0.165;stroke-miterlimit:4;stroke-dasharray:none;stroke-opacity:1"
       d="m 125.00003,195.59801 27.34159,0.0741 -0.0254,27.38841 -27.364,0.0974 z"
       id="path261160-5" />
    <path
       style="display:inline;fill:#4b4b4c;fill-opacity:1;stroke:none;stroke-width:0.0422796;stroke-miterlimit:4;stroke-dasharray:none;stroke-opacity:1"
       d="m 134.14179,201.34214 -3.49447,3.39719 -1.28657,4.4553 1.28657,5.21951 3.49447,3.13439 4.50513,1.06953 4.50514,-1.06953 3.49447,-3.13439 1.28656,-5.21951 -1.28656,-4.45531 -3.49447,-3.39718 -4.50514,-1.20427 z"
       id="path266143"
       sodipodi:nodetypes="ccccccccccccc" />
    <path
       style="display:inline;fill:#1e1a22;fill-opacity:1;stroke:none;stroke-width:0.0361952;stroke-miterlimit:4;stroke-dasharray:none;stroke-opacity:1"
       d="m 134.92573,202.49861 -2.99157,2.90828 -1.1014,3.81413 1.1014,4.46835 2.99157,2.6833 3.85679,0.91561 3.85678,-0.91561 2.99157,-2.6833 1.10141,-4.46836 -1.10141,-3.81412 -2.99157,-2.90829 -3.85678,-1.03096 z"
       id="path266143-5-5"
       sodipodi:nodetypes="ccccccccccccc" />
    <path
       style="display:inline;fill:#4b4b4c;fill-opacity:1;stroke:none;stroke-width:0.0327639;stroke-miterlimit:4;stroke-dasharray:none;stroke-opacity:1"
       d="m 135.02145,202.95611 -2.70798,2.63259 -0.99699,3.45255 0.99699,4.04476 2.70798,2.42894 3.49117,0.82881 3.49117,-0.82881 2.70798,-2.42894 0.99699,-4.04476 -0.99699,-3.45255 -2.70798,-2.63259 -3.49117,-0.93323 z"
       id="path266143-5"
       sodipodi:nodetypes="ccccccccccccc" />
    <path
       style="display:inline;fill:#442937;fill-opacity:1;stroke:none;stroke-width:0.0201959;stroke-miterlimit:4;stroke-dasharray:none;stroke-opacity:1"
       d="m 136.48417,205.55854 -1.67756,1.61468 -0.61763,2.1176 0.61763,2.48084 1.67756,1.48977 2.16275,0.50835 2.16275,-0.50835 1.67756,-1.48977 0.61763,-2.48084 -0.61763,-2.1176 -1.67756,-1.61468 -2.16275,-0.57239 z"
       id="path266143-4-6"
       sodipodi:nodetypes="ccccccccccccc" />
    <path
       style="display:inline;fill:#4b4b4c;fill-opacity:1;stroke:none;stroke-width:0.0190707;stroke-miterlimit:4;stroke-dasharray:none;stroke-opacity:1"
       d="m 136.47923,205.61772 -1.57622,1.53234 -0.58032,2.00961 0.58032,2.35432 1.57622,1.4138 2.0321,0.48243 2.03209,-0.48243 1.57622,-1.4138 0.58032,-2.35432 -0.58032,-2.00961 -1.57622,-1.53234 -2.03209,-0.5432 z"
       id="path266143-4"
       sodipodi:nodetypes="ccccccccccccc" />
    <path
       style="display:inline;fill:#f93a33;fill-opacity:1;stroke:none;stroke-width:0.0131894;stroke-miterlimit:4;stroke-dasharray:none;stroke-opacity:1"
       d="m 137.10592,206.73553 -1.09013,1.05978 -0.40135,1.38987 0.40135,1.62826 1.09013,0.9778 1.40541,0.33365 1.40541,-0.33365 1.09013,-0.9778 0.40135,-1.62826 -0.40135,-1.38987 -1.09013,-1.05978 -1.40541,-0.37568 z"
       id="path266143-4-7"
       sodipodi:nodetypes="ccccccccccccc"
       inkscape:label="center" />
  </g>
</svg>
