<?xml version="1.0" encoding="UTF-8" standalone="no"?>
<!-- Created with Inkscape (http://www.inkscape.org/) -->

<svg
   width="50.148529mm"
   height="51.414227mm"
   viewBox="0 0 50.148529 51.414227"
   version="1.1"
   id="svg167186"
   sodipodi:docname="plant1.svg"
   inkscape:version="1.1.2 (0a00cf5339, 2022-02-04)"
   xmlns:inkscape="http://www.inkscape.org/namespaces/inkscape"
   xmlns:sodipodi="http://sodipodi.sourceforge.net/DTD/sodipodi-0.dtd"
   xmlns="http://www.w3.org/2000/svg"
   xmlns:svg="http://www.w3.org/2000/svg">
  <sodipodi:namedview
     id="namedview167188"
     pagecolor="#ffffff"
     bordercolor="#000000"
     borderopacity="0.25"
     inkscape:pageshadow="2"
     inkscape:pageopacity="0.0"
     inkscape:pagecheckerboard="0"
     inkscape:document-units="mm"
     showgrid="false"
     inkscape:zoom="2.1266375"
     inkscape:cx="-29.859344"
     inkscape:cy="46.552363"
     inkscape:window-width="1920"
     inkscape:window-height="1043"
     inkscape:window-x="0"
     inkscape:window-y="0"
     inkscape:window-maximized="1"
     inkscape:current-layer="g25575" />
  <defs
     id="defs167183" />
  <g
     inkscape:label="Layer 1"
     inkscape:groupmode="layer"
     id="layer1"
     transform="translate(-24.07857,-82.895488)">
    <g
       id="g1154"
       transform="translate(-100.67266,171.9506)"
       style="display:inline">
      <g
         id="g25575">
        <path
           style="fill:#8ba23d;fill-opacity:1;stroke-width:0.264583"
           d="m 133.93886,-43.623218 -1.52209,1.109223 -2.10455,0.218429 -1.49314,-0.740619 -0.65646,-0.955638 0.31858,-1.293519 1.39981,-2.754283 -0.93642,-0.430038 -0.01,-0.716724 0.45694,-0.972704 0.86564,-1.481238 -1.68622,1.351547 -0.67256,1.194544 -1.71516,-0.238914 -0.70474,-0.907854 0.52774,-1.269632 1.54463,-1.296932 1.26787,-0.99318 -2.47461,-0.242321 -1.28396,-0.754269 -0.30893,-1.5495 0.38616,-1.314001 1.32258,-0.907854 1.04584,-0.58021 -1.37729,-1.139936 -0.74336,-1.020485 -0.20916,-1.488059 0.77554,-0.993185 1.09087,-0.764505 1.38374,0.587031 0.80448,1.262809 0.77232,0.378838 0.74978,-0.587034 -1.41,-0.900022 -2.23288,-2.517349 0.16931,-3.201453 2.14127,-1.786485 20.2324,-2.708838 5.99531,14.763441 -12.04927,16.825228 -3.12046,-0.899287 -1.48766,0.834438 -1.81814,0.395909 -1.36765,-1.088745 -0.38936,-1.252564 z"
           id="path968"
           sodipodi:nodetypes="cccccccccccccccccccccccccccccccccccccccccccccc" />
        <path
           style="display:inline;fill:#7d8c3b;fill-opacity:1;stroke-width:0.264583"
           d="m 146.92531,-38.346366 1.47704,0.663826 1.62025,0.0068 1.12146,-0.459047 0.83023,-1.278162 0.86241,1.102394 1.0024,0.636521 1.43843,-0.38908 1.06997,-1.063146 0.60015,-1.170654 0.76909,0.638227 0.91712,0.06826 0.98952,-0.344712 0.60015,-0.387374 0.49879,1.11946 0.78035,0.511948 1.26144,-0.174062 0.65325,-1.266219 0.76105,-1.522193 0.54228,-0.944343 0.80771,-0.63482 1.87928,-0.290102 1.28076,-0.522187 0.52613,-1.160418 -0.18181,-1.368607 -0.5728,-1.266217 1.49314,-0.242323 1.51887,-0.32253 1.11341,-0.899322 0.73209,-1.143349 -0.11744,-1.367784 -0.85919,-1.008537 0.95572,-0.348125 0.39743,-1.015365 0.0708,-1.575096 -0.17177,-1.435828 -1.02492,-1.095573 -0.94286,-0.960755 -0.80932,-0.820823 1.26144,-1.000005 1.41591,-1.046081 0.78839,-1.000006 0.25447,-1.427811 -0.30892,-1.720146 0.45694,-1.24062 0.21561,-1.639941 -0.80532,-1.663001 -4.02258,-4.828613 -7.3288,-0.915079 -3.69872,5.011938 -3.18974,10.078843 -6.86447,8.500191 -4.03555,9.01416 0.97209,3.980961 0.51015,0.892798 z"
           id="path754"
           sodipodi:nodetypes="cccccccccccccccccccccccccccccccccccccccccccccccccccccccc" />
        <path
           style="display:inline;fill:#a5b849;fill-opacity:1;stroke-width:0.264583"
           d="m 129.40695,-65.149366 -2.2971,-1.181436 -1.64231,-1.56431 -0.54556,-2.374646 0.88179,-2.10014 2.00101,-1.109991 2.88793,-0.356275 -1.58708,-1.684758 -0.22464,-1.639059 0.80242,-1.661504 1.25454,-1.139433 1.57187,-0.693209 1.88576,-0.05484 -0.3029,-1.681867 0.26196,-1.297336 1.0137,-0.165934 0.71994,0.780534 1.22889,-0.08797 1.04766,1.312612 0.40352,-1.304428 0.88917,-1.377966 1.50936,-1.022498 1.9446,-0.384461 1.75333,0.464601 1.32741,1.086035 0.8947,1.447982 1.47593,-1.0869 2.10863,-0.484119 2.48902,-0.192399 0.022,-1.458513 0.15915,-1.388796 0.49035,-0.854051 1.1045,-0.650671 0.96614,0.181049 0.92942,0.647875 0.31748,1.194794 -0.11135,1.522979 -0.25469,1.046237 0.0184,0.736544 0.96343,-1.122709 1.2794,-0.923502 1.28117,-0.318995 1.30168,0.260596 0.5235,0.985031 -0.2073,1.289627 -0.82988,1.266756 -0.33282,0.980654 1.13004,-0.69592 1.22265,-0.559551 1.43862,0.07249 0.94764,0.756558 0.4291,1.313386 -0.55638,1.709037 2.23196,0.621879 2.4695,0.985022 2.15064,1.611443 0.81104,2.122111 -0.57993,1.457106 -1.82537,0.408538 -1.54289,-1.146167 -1.47657,-0.62415 0.0214,-2.126652 -2.15065,3.168415 -1.76973,1.193826 0.31457,1.745353 0.45153,0.830686 0.92659,0.887428 -0.28889,1.093965 -1.55121,0.415327 c 0,0 0.68698,0.672444 0.80047,0.78318 0.11349,0.110739 0.7127,1.792647 0.7127,1.792647 l -0.75961,2.145718 -0.90751,0.689181 -1.08343,0.446157 0.0439,1.22773 1.52376,1.418709 0.26935,1.65944 -0.83981,0.95169 -1.74166,0.398011 -3.56805,-0.03049 -1.49803,-0.4606 0.26934,2.681745 -0.2523,2.31198 -0.59316,1.202052 -1.99587,-0.304927 1.3452,1.020699 0.33139,1.606481 -1.18633,1.014283 -1.45869,0.0337 -1.44356,-1.218099 -1.10462,-1.221312 -2.37188,2.270853 -1.28014,1.608084 -0.74902,2.291763 -0.87763,2.384846 -1.51166,1.399452 -2.00797,0.324186 -1.80672,-0.569732 -0.53567,-1.226124 0.6083,-1.733265 0.56289,-2.168186 3.35511,-2.875446 1.65434,-3.169661 -2.48765,1.547093 -1.54343,0.558503 -1.06527,-0.680476 -0.9745,-2.047822 -0.21789,-1.405864 1.15002,-1.540684 2.80844,-2.62558 2.47553,-2.112007 1.97922,-1.232548 1.39212,-0.776762 1.13791,-2.587058 -0.19369,-2.965813 -1.99134,-2.676935 -2.14631,1.052407 -0.5054,1.115388 -0.36013,1.463646 -1.59337,1.409081 -1.0683,1.036748 -2.36054,-0.389982 -2.73429,-1.78783 -2.50343,-2.485559 -1.40724,-1.76376 -2.32271,0.0963 -1.37093,0.600223 -0.3904,1.26464 0.50994,0.786392 z"
           id="path705"
           sodipodi:nodetypes="cccccccccccccccccccccccccccccccccccccccccccccccccccccccccccccccccccccscccccccccccccccccccccccccccccccccccccccccccccccccccccccccccc" />
      </g>
    </g>
  </g>
</svg>
